<svg width="91" height="63" viewBox="0 0 91 63" fill="none" xmlns="http://www.w3.org/2000/svg">
<path d="M29.2784 36.0962L24.0155 19.0173H17.6347L12.1513 35.9997C11.6421 37.5394 11.3855 38.1322 9.66319 38.1322H8.90918V41.0166H18.2895V38.1322H17.237C15.9937 38.1322 15.5147 38.0307 15.5147 37.3444C15.5147 37.1813 15.5465 36.8511 15.6758 36.4594L16.4712 33.9334H22.6273L23.4564 36.6566C23.5201 36.9191 23.6156 37.1458 23.6156 37.3447C23.6156 37.9991 23.0726 38.1325 21.6706 38.1325H20.7753V41.0169H32.5747V38.1325H31.4906C30.1383 38.1524 29.76 37.6154 29.283 36.1034L29.2784 36.0962ZM17.3825 31.0842L19.5845 24.13L21.7225 31.0842H17.3625H17.3825Z" fill="#DF1A22"/>
<path d="M50.836 29.4109C53.7397 28.4563 55.2697 26.6202 55.2697 24.2272C55.2697 20.5557 52.5887 19.0477 47.1645 19.0477H34.6689V21.9321H35.8503C37.6023 21.9321 37.7973 22.2265 37.7973 23.8357V36.2624C37.7973 37.8697 37.6044 38.166 35.8503 38.166H34.6689V41.0504H46.8199C53.2944 41.0504 56.3587 39.5727 56.3587 35.0177C56.3587 31.994 54.5488 30.2041 50.8491 29.3888L50.836 29.4109ZM43.799 21.9673H45.3601C48.1053 21.9673 49.3163 22.8205 49.3163 25.0185C49.3163 27.2777 48.0391 28.2288 45.2326 28.2288H43.7984V21.9735L43.799 21.9673ZM45.4897 38.1984H43.799V31.0167H45.4559C48.6126 31.0167 50.0503 32.0671 50.0503 34.6544C50.0503 37.1604 48.5781 38.195 45.4952 38.195L45.4897 38.1984Z" fill="#DF1A22"/>
<path d="M59.3147 21.9672H60.4939C62.2459 21.9672 62.4389 22.2616 62.4389 23.8708V36.2975C62.4389 37.9047 62.246 38.2011 60.4939 38.2011H59.3147V41.0855H71.7482V38.2011H70.4077C68.6536 38.2011 68.4324 37.9047 68.4324 36.2975V31.1159C68.5935 31.1159 68.7506 31.0841 68.9117 31.0841C70.7912 31.0841 71.3026 32.1007 71.3343 34.7879H74.0133V24.7529H71.3343V24.918C71.3343 27.3764 70.6959 28.2297 68.6553 28.2297H68.4346V21.9681H70.1253C72.4204 21.9681 73.9842 21.9681 75.0042 22.9826C75.9926 23.9351 76.3744 25.5741 76.5674 28.0663H79.3739V19.0306H59.1729V21.9247L59.3147 21.9672Z" fill="#DF1A22"/>
<path d="M45.33 0.325684C20.3113 0.325684 0 14.2273 0 31.3751C0 48.5298 20.2906 62.4244 45.33 62.4244C70.3487 62.4244 90.66 48.5229 90.66 31.3751C90.66 14.2273 70.3556 0.325684 45.33 0.325684ZM45.33 59.3229C22.0206 59.3229 3.12217 46.8067 3.12217 31.3751C3.12217 15.9434 22.0206 3.42718 45.33 3.42718C68.6395 3.42718 87.5379 15.9434 87.5379 31.3751C87.5379 46.8067 68.6395 59.3229 45.33 59.3229Z" fill="#DF1A22"/>
</svg>
