<svg width="96" height="49" viewBox="0 0 96 49" fill="none" xmlns="http://www.w3.org/2000/svg">
<path fill-rule="evenodd" clip-rule="evenodd" d="M69.1556 0.587703L96 47.5596H82.4L79.4489 42.4548H65.92L70.6489 34.1771H74.72L69.1378 24.3573L63.2889 34.5493C62.3698 36.1446 61.44 37.5449 60.5333 38.7502C56.0711 44.6172 48.8356 48.375 40.8 48.375C27.3244 48.375 16.2667 37.7398 16.2667 24.6232C16.2667 11.5065 27.2356 0.871307 40.8 0.871307C45.4044 0.871307 49.5467 2.08371 53.1556 4.11503L47.3778 14.2539C45.3831 13.0864 43.113 12.4686 40.8 12.4636C33.9022 12.4636 28.32 17.8876 28.32 24.57C28.32 31.2701 33.9022 36.6763 40.8 36.6763C44.5511 36.6763 47.6267 35.1466 49.8667 32.9186C50.8533 31.9632 51.9644 30.3661 52.3022 29.7989L69.12 0.375L69.1556 0.587703ZM0 47.5596V1.82847H11.9644V47.5596H0Z" fill="#E3000B"/>
</svg>
