<svg width="228" height="108" viewBox="0 0 228 108" fill="none" xmlns="http://www.w3.org/2000/svg">
<path fill-rule="evenodd" clip-rule="evenodd" d="M74.5279 64.543L37.2639 0L0 64.543H24.8426L0 107.572H74.5279L49.6853 64.543H74.5279Z" fill="#304659"/>
<path fill-rule="evenodd" clip-rule="evenodd" d="M94.3488 10.363L49.7988 48.313V107.713H78.3723V70.3059C78.3723 61.6065 85.4246 54.5543 94.1239 54.5543C102.823 54.5543 109.875 61.6065 109.875 70.3059V107.713H138.899V48.313L94.3488 10.363Z" fill="#FFD499"/>
<rect x="138.899" y="48.313" width="89.1" height="59.4" fill="#FF8342"/>
<path d="M94.1143 10.1274H185.571L228 48.3132H139.371L94.1143 10.1274Z" fill="#416D63"/>
<rect x="138.898" y="48.313" width="89.1" height="59.4" fill="#A64946"/>
<path d="M94.1143 10.1274H185.571L228 48.3132H139.371L94.1143 10.1274Z" fill="white"/>
<path d="M49.7988 48.313L94.3488 10.363L138.899 48.313V107.713H49.7988V48.313Z" fill="#D37163"/>
<path d="M78.3721 70.3058C78.3721 61.6064 85.4243 54.5542 94.1236 54.5542C102.823 54.5542 109.875 61.6064 109.875 70.3058V107.572H78.3721V70.3058Z" fill="#A64946"/>
<path d="M176.726 84.5205C176.726 79.0039 181.198 74.5317 186.714 74.5317C192.231 74.5317 196.703 79.0039 196.703 84.5205V107.572H176.726V84.5205Z" fill="#A64946"/>
</svg>
