<svg width="136" height="63" viewBox="0 0 136 63" fill="none" xmlns="http://www.w3.org/2000/svg">
<path fill-rule="evenodd" clip-rule="evenodd" d="M34.1928 41.6118L17.0964 12L0 41.6118H12.2856L0 62.8911H34.1928L21.9072 41.6118H34.1928Z" fill="#304659"/>
<path fill-rule="evenodd" clip-rule="evenodd" d="M49.562 0.568359L21 24.899V62.9817H39.319V38.9989C39.319 33.4215 43.8404 28.9002 49.4177 28.9002C54.9951 28.9002 59.5164 33.4215 59.5164 38.9989V62.9817H78.1241V24.899L49.562 0.568359Z" fill="#FFD499"/>
<rect x="78.125" y="24.8989" width="57.1241" height="38.0827" fill="#FF8342"/>
<path d="M49.4121 0.417236H108.047L135.249 24.899H78.4275L49.4121 0.417236Z" fill="#416D63"/>
<rect x="78.123" y="24.8989" width="57.1241" height="38.0827" fill="#A64946"/>
<path d="M49.4121 0.417236H108.047L135.249 24.899H78.4275L49.4121 0.417236Z" fill="white"/>
<path d="M21 24.899L49.562 0.568359L78.1241 24.899V62.9817H21V24.899Z" fill="#D37163"/>
<path d="M39.3193 38.9991C39.3193 33.4217 43.8407 28.9004 49.418 28.9004C54.9954 28.9004 59.5167 33.4217 59.5167 38.9991V62.8911H39.3193V38.9991Z" fill="#A64946"/>
<path d="M102.376 48.1126C102.376 44.5757 105.243 41.7085 108.78 41.7085C112.317 41.7085 115.184 44.5757 115.184 48.1125V62.8911H102.376V48.1126Z" fill="#A64946"/>
<path d="M106.565 33.2793L123.662 62.8911H89.4688L106.565 33.2793Z" fill="#34A59F"/>
</svg>
