<svg width="183" height="86" viewBox="0 0 183 86" fill="none" xmlns="http://www.w3.org/2000/svg">
<path fill-rule="evenodd" clip-rule="evenodd" d="M60.0007 51.5213L30.3534 0L0.706055 51.5213H20.471L0.706055 85.8689H60.0007L40.2358 51.5213H60.0007Z" fill="#304659"/>
<path fill-rule="evenodd" clip-rule="evenodd" d="M75.7703 8.27222L40.3262 38.5657V85.9816H63.0592V56.0796C63.0592 49.1584 68.67 43.5476 75.5913 43.5476C82.5125 43.5476 88.1233 49.1584 88.1233 56.0796V85.9816H111.214V38.5657L75.7703 8.27222Z" fill="#FFD499"/>
<rect x="111.215" y="38.5657" width="70.8883" height="47.4159" fill="#FF8342"/>
<path d="M75.584 8.08423H148.348L182.104 38.5659H111.591L75.584 8.08423Z" fill="#416D63"/>
<rect x="111.213" y="38.5657" width="70.8883" height="47.4159" fill="#A64946"/>
<path d="M75.583 8.08423H148.347L182.103 38.5659H111.59L75.583 8.08423Z" fill="white"/>
<path d="M40.3252 38.5657L75.7693 8.27222L111.214 38.5657V85.9816H40.3252V38.5657Z" fill="#D37163"/>
<path d="M63.0586 56.0799C63.0586 49.1586 68.6694 43.5479 75.5906 43.5479C82.5118 43.5479 88.1226 49.1586 88.1226 56.0799V85.8689H63.0586V56.0799Z" fill="#A64946"/>
<path d="M141.31 67.4417C141.31 63.0527 144.868 59.4946 149.257 59.4946C153.646 59.4946 157.204 63.0527 157.204 67.4418V85.8686H141.31V67.4417Z" fill="#A64946"/>
</svg>
