<svg width="436" height="169" viewBox="0 0 436 169" fill="none" xmlns="http://www.w3.org/2000/svg">
<path fill-rule="evenodd" clip-rule="evenodd" d="M116.742 101.102L58.3711 0L0 101.102H38.914L0 168.503H116.742L77.8282 101.102H116.742Z" fill="#304659"/>
<path fill-rule="evenodd" clip-rule="evenodd" d="M147.792 16.2324L78.0078 75.6782V168.724H122.767V110.128C122.767 96.5015 133.813 85.4547 147.44 85.4547C161.067 85.4547 172.114 96.5015 172.114 110.128V168.724H217.576V75.6782L147.792 16.2324Z" fill="#FFD499"/>
<rect x="217.576" y="75.6785" width="139.568" height="93.0455" fill="#FF8342"/>
<path d="M147.424 15.8638H290.684L357.146 75.6788H218.316L147.424 15.8638Z" fill="#416D63"/>
<rect x="217.575" y="75.6785" width="139.568" height="93.0455" fill="#A64946"/>
<path d="M147.424 15.8638H290.684L357.146 75.6788H218.316L147.424 15.8638Z" fill="white"/>
<path d="M78.0078 75.6782L147.792 16.2324L217.576 75.6782V168.724H78.0078V75.6782Z" fill="#D37163"/>
<path d="M122.767 110.128C122.767 96.5013 133.813 85.4546 147.44 85.4546C161.067 85.4546 172.114 96.5014 172.114 110.128V168.502H122.767V110.128Z" fill="#A64946"/>
<path d="M245.298 105.287L292.851 64.7791L340.404 105.287V168.692H245.298V105.287Z" fill="#D37163"/>
<rect x="340.405" y="105.288" width="95.1065" height="63.4044" fill="#A64946"/>
<path d="M292.6 64.5278H390.222L435.511 105.288H340.908L292.6 64.5278Z" fill="white"/>
<path d="M365.893 116.662L395.982 168.779H335.803L365.893 116.662Z" fill="#34A59F"/>
<path d="M276.827 132.395C276.827 123.754 283.832 116.748 292.474 116.748C301.115 116.748 308.121 123.754 308.121 132.395V168.503H276.827V132.395Z" fill="#A64946"/>
</svg>
